<svg xmlns="http://www.w3.org/2000/svg" viewBox="0 0 800 500" width="100%" height="100%" style="background-color: #ffffff; font-family: -apple-system, BlinkMacSystemFont, Segoe UI, Roboto, Helvetica, Arial, sans-serif;">
<text x="400.0" y="30" text-anchor="middle" font-size="18" font-weight="bold" fill="#333">Downloads Last Month by Target Library &amp; Source</text>
<line x1="80" y1="410.0" x2="650" y2="410.0" stroke="#e0e0e0" stroke-width="1" />
<text x="70" y="414.0" text-anchor="end" font-size="12" fill="#666">0</text>
<line x1="80" y1="360.0" x2="650" y2="360.0" stroke="#e0e0e0" stroke-width="1" />
<text x="70" y="364.0" text-anchor="end" font-size="12" fill="#666">1M</text>
<line x1="80" y1="310.0" x2="650" y2="310.0" stroke="#e0e0e0" stroke-width="1" />
<text x="70" y="314.0" text-anchor="end" font-size="12" fill="#666">2M</text>
<line x1="80" y1="260.0" x2="650" y2="260.0" stroke="#e0e0e0" stroke-width="1" />
<text x="70" y="264.0" text-anchor="end" font-size="12" fill="#666">3M</text>
<line x1="80" y1="210.0" x2="650" y2="210.0" stroke="#e0e0e0" stroke-width="1" />
<text x="70" y="214.0" text-anchor="end" font-size="12" fill="#666">4M</text>
<line x1="80" y1="160.0" x2="650" y2="160.0" stroke="#e0e0e0" stroke-width="1" />
<text x="70" y="164.0" text-anchor="end" font-size="12" fill="#666">5M</text>
<line x1="80" y1="110.0" x2="650" y2="110.0" stroke="#e0e0e0" stroke-width="1" />
<text x="70" y="114.0" text-anchor="end" font-size="12" fill="#666">6M</text>
<line x1="80" y1="60.0" x2="650" y2="60.0" stroke="#e0e0e0" stroke-width="1" />
<text x="70" y="64.0" text-anchor="end" font-size="12" fill="#666">7M</text>
<text x="147.0" y="430" transform="rotate(-25 147.0 430)" text-anchor="end" font-size="11" font-weight="600" fill="#333">google-genai</text>
<rect x="95.1" y="377.8342" width="26.599999999999998" height="32.1658" fill="#3182bd" rx="2" />
<text x="108.39999999999999" y="373.8342" transform="rotate(-45 108.39999999999999 373.8342)" text-anchor="start" font-size="8.5" font-weight="bold" fill="#555">643.3k</text>
<title>openinference: 643,316</title>
<rect x="123.69999999999999" y="301.1748" width="26.599999999999998" height="108.8252" fill="#e6550d" rx="2" />
<text x="137.0" y="297.1748" transform="rotate(-45 137.0 297.1748)" text-anchor="start" font-size="8.5" font-weight="bold" fill="#555">2.18M</text>
<title>openllmetry: 2,176,504</title>
<rect x="152.29999999999998" y="138.10990000000004" width="26.599999999999998" height="271.89009999999996" fill="#31a354" rx="2" />
<text x="165.6" y="134.10990000000004" transform="rotate(-45 165.6 134.10990000000004)" text-anchor="start" font-size="8.5" font-weight="bold" fill="#555">5.44M</text>
<title>opentelemetry: 5,437,802</title>
<text x="261.0" y="430" transform="rotate(-25 261.0 430)" text-anchor="end" font-size="11" font-weight="600" fill="#333">openai-agents</text>
<rect x="209.1" y="328.14285" width="26.599999999999998" height="81.85715" fill="#3182bd" rx="2" />
<text x="222.4" y="324.14285" transform="rotate(-45 222.4 324.14285)" text-anchor="start" font-size="8.5" font-weight="bold" fill="#555">1.64M</text>
<title>openinference: 1,637,143</title>
<rect x="237.7" y="324.05205" width="26.599999999999998" height="85.94795" fill="#e6550d" rx="2" />
<text x="251.0" y="320.05205" transform="rotate(-45 251.0 320.05205)" text-anchor="start" font-size="8.5" font-weight="bold" fill="#555">1.72M</text>
<title>openllmetry: 1,718,959</title>
<rect x="266.3" y="273.22965" width="26.599999999999998" height="136.77035" fill="#31a354" rx="2" />
<text x="279.6" y="269.22965" transform="rotate(-45 279.6 269.22965)" text-anchor="start" font-size="8.5" font-weight="bold" fill="#555">2.74M</text>
<title>opentelemetry: 2,735,407</title>
<text x="375.0" y="430" transform="rotate(-25 375.0 430)" text-anchor="end" font-size="11" font-weight="600" fill="#333">openai</text>
<rect x="323.1" y="309.01615" width="26.599999999999998" height="100.98385" fill="#3182bd" rx="2" />
<text x="336.40000000000003" y="305.01615" transform="rotate(-45 336.40000000000003 305.01615)" text-anchor="start" font-size="8.5" font-weight="bold" fill="#555">2.02M</text>
<title>openinference: 2,019,677</title>
<rect x="351.70000000000005" y="230.04219999999998" width="26.599999999999998" height="179.95780000000002" fill="#e6550d" rx="2" />
<text x="365.00000000000006" y="226.04219999999998" transform="rotate(-45 365.00000000000006 226.04219999999998)" text-anchor="start" font-size="8.5" font-weight="bold" fill="#555">3.60M</text>
<title>openllmetry: 3,599,156</title>
<rect x="380.3" y="332.55095" width="26.599999999999998" height="77.44905" fill="#31a354" rx="2" />
<text x="393.6" y="328.55095" transform="rotate(-45 393.6 328.55095)" text-anchor="start" font-size="8.5" font-weight="bold" fill="#555">1.55M</text>
<title>opentelemetry: 1,548,981</title>
<text x="489.0" y="430" transform="rotate(-25 489.0 430)" text-anchor="end" font-size="11" font-weight="600" fill="#333">langchain</text>
<rect x="437.1" y="279.4624" width="26.599999999999998" height="130.5376" fill="#3182bd" rx="2" />
<text x="450.40000000000003" y="275.4624" transform="rotate(-45 450.40000000000003 275.4624)" text-anchor="start" font-size="8.5" font-weight="bold" fill="#555">2.61M</text>
<title>openinference: 2,610,752</title>
<rect x="465.70000000000005" y="247.67185" width="26.599999999999998" height="162.32815" fill="#e6550d" rx="2" />
<text x="479.00000000000006" y="243.67185" transform="rotate(-45 479.00000000000006 243.67185)" text-anchor="start" font-size="8.5" font-weight="bold" fill="#555">3.25M</text>
<title>openllmetry: 3,246,563</title>
<rect x="494.3" y="409.86635" width="26.599999999999998" height="0.13365000000000002" fill="#31a354" rx="2" />
<text x="507.6" y="405.86635" transform="rotate(-45 507.6 405.86635)" text-anchor="start" font-size="8.5" font-weight="bold" fill="#555">2.7k</text>
<title>opentelemetry: 2,673</title>
<text x="603.0" y="430" transform="rotate(-25 603.0 430)" text-anchor="end" font-size="11" font-weight="600" fill="#333">anthropic</text>
<rect x="551.1" y="378.8693" width="26.599999999999998" height="31.1307" fill="#3182bd" rx="2" />
<text x="564.4" y="374.8693" transform="rotate(-45 564.4 374.8693)" text-anchor="start" font-size="8.5" font-weight="bold" fill="#555">622.6k</text>
<title>openinference: 622,614</title>
<rect x="579.7" y="214.8634" width="26.599999999999998" height="195.1366" fill="#e6550d" rx="2" />
<text x="593.0" y="210.8634" transform="rotate(-45 593.0 210.8634)" text-anchor="start" font-size="8.5" font-weight="bold" fill="#555">3.90M</text>
<title>openllmetry: 3,902,732</title>
<rect x="608.3000000000001" y="409.72925" width="26.599999999999998" height="0.27075" fill="#31a354" rx="2" />
<text x="621.6" y="405.72925" transform="rotate(-45 621.6 405.72925)" text-anchor="start" font-size="8.5" font-weight="bold" fill="#555">5.4k</text>
<title>opentelemetry: 5,415</title>
<rect x="670" y="60" width="18" height="18" fill="#3182bd" rx="3" />
<text x="695" y="74" font-size="13" fill="#333">openinference</text>
<rect x="670" y="90" width="18" height="18" fill="#e6550d" rx="3" />
<text x="695" y="104" font-size="13" fill="#333">openllmetry</text>
<rect x="670" y="120" width="18" height="18" fill="#31a354" rx="3" />
<text x="695" y="134" font-size="13" fill="#333">opentelemetry</text>
<line x1="80" y1="60" x2="80" y2="410" stroke="#888" stroke-width="1.5" />
<line x1="80" y1="410" x2="650" y2="410" stroke="#888" stroke-width="1.5" />
</svg>