<svg xmlns="http://www.w3.org/2000/svg" viewBox="0 0 800 420" width="100%" height="100%" style="background-color: #ffffff; font-family: -apple-system, BlinkMacSystemFont, Segoe UI, Roboto, Helvetica, Arial, sans-serif;">
<text x="400.0" y="30" text-anchor="middle" font-size="18" font-weight="bold" fill="#333">OTel Contrib vs GenAI</text>
<line x1="80" y1="360.0" x2="650" y2="360.0" stroke="#e0e0e0" stroke-width="1" />
<text x="70" y="364.0" text-anchor="end" font-size="12" fill="#666">0</text>
<line x1="80" y1="271.42857142857144" x2="650" y2="271.42857142857144" stroke="#e0e0e0" stroke-width="1" />
<text x="70" y="275.42857142857144" text-anchor="end" font-size="12" fill="#666">1.0M</text>
<line x1="80" y1="182.85714285714286" x2="650" y2="182.85714285714286" stroke="#e0e0e0" stroke-width="1" />
<text x="70" y="186.85714285714286" text-anchor="end" font-size="12" fill="#666">2.0M</text>
<line x1="80" y1="94.28571428571428" x2="650" y2="94.28571428571428" stroke="#e0e0e0" stroke-width="1" />
<text x="70" y="98.28571428571428" text-anchor="end" font-size="12" fill="#666">3.0M</text>
<line x1="80" y1="5.714285714285722" x2="650" y2="5.714285714285722" stroke="#e0e0e0" stroke-width="1" />
<text x="70" y="9.714285714285722" text-anchor="end" font-size="12" fill="#666">4.0M</text>
<text x="222.5" y="385" text-anchor="middle" font-size="13" font-weight="600" fill="#333">openai-agents</text>
<rect x="149.25" y="101.75777714285715" width="71.25" height="258.24222285714285" fill="#74c476" rx="2" />
<text x="184.875" y="95.75777714285715" text-anchor="middle" font-size="11" font-weight="bold" fill="#444">2.92M</text>
<title>python-contrib: 2,915,638</title>
<rect x="224.5" y="359.80594" width="71.25" height="0.19406" fill="#de2d26" rx="2" />
<text x="260.125" y="353.80594" text-anchor="middle" font-size="11" font-weight="bold" fill="#444">2.2k</text>
<title>python-genai: 2,191</title>
<text x="507.5" y="385" text-anchor="middle" font-size="13" font-weight="600" fill="#333">openai</text>
<rect x="434.25" y="202.63461142857145" width="71.25" height="157.36538857142855" fill="#74c476" rx="2" />
<text x="469.875" y="196.63461142857145" text-anchor="middle" font-size="11" font-weight="bold" fill="#444">1.78M</text>
<title>python-contrib: 1,776,706</title>
<rect x="509.5" y="359.3523657142857" width="71.25" height="0.6476342857142857" fill="#de2d26" rx="2" />
<text x="545.125" y="353.3523657142857" text-anchor="middle" font-size="11" font-weight="bold" fill="#444">7.3k</text>
<title>python-genai: 7,312</title>
<rect x="670" y="50" width="18" height="18" fill="#74c476" rx="3" />
<text x="695" y="64" font-size="13" fill="#333">python-contrib</text>
<rect x="670" y="80" width="18" height="18" fill="#de2d26" rx="3" />
<text x="695" y="94" font-size="13" fill="#333">python-genai</text>
<line x1="80" y1="50" x2="80" y2="360" stroke="#888" stroke-width="1.5" />
<line x1="80" y1="360" x2="650" y2="360" stroke="#888" stroke-width="1.5" />
</svg>